<?xml version="1.0" standalone="no"?>
<!DOCTYPE svg PUBLIC "-//W3C//DTD SVG 20010904//EN"
 "http://www.w3.org/TR/2001/REC-SVG-20010904/DTD/svg10.dtd">
<svg version="1.0" xmlns="http://www.w3.org/2000/svg"
 width="730.000000pt" height="956.000000pt" viewBox="0 0 730.000000 956.000000"
 preserveAspectRatio="xMidYMid meet">

<g transform="translate(0.000000,956.000000) scale(0.100000,-0.100000)"
fill="#000000" stroke="none">
<path d="M5455 9540 c-11 -5 -38 -9 -60 -9 -56 -1 -68 -15 -47 -57 12 -27 13
-37 4 -46 -9 -9 -12 -9 -12 0 0 24 -25 10 -48 -25 -22 -34 -22 -38 -7 -49 15
-11 15 -13 -3 -19 -11 -3 -31 -3 -45 0 -33 9 -42 -8 -22 -39 16 -24 15 -25 -9
-41 -22 -15 -26 -25 -26 -65 l0 -47 -120 -53 c-66 -29 -118 -55 -116 -57 3 -3
52 16 111 42 58 27 107 46 110 43 11 -11 -155 -291 -222 -375 -23 -28 -49 -69
-58 -90 -9 -21 -26 -48 -38 -61 -18 -19 -24 -42 -32 -135 l-10 -112 -60 -32
c-33 -17 -78 -37 -100 -43 -50 -15 -115 -81 -175 -180 -40 -65 -117 -174 -281
-395 -28 -38 -88 -144 -133 -234 -105 -213 -119 -238 -139 -259 -14 -14 -36
-17 -108 -17 l-91 0 -27 -40 c-15 -22 -46 -51 -70 -64 -27 -15 -55 -43 -76
-76 -38 -59 -48 -65 -111 -65 -31 0 -55 -8 -83 -27 -42 -30 -55 -53 -66 -118
-9 -52 -27 -71 -89 -91 -71 -23 -95 -36 -171 -94 -61 -46 -70 -50 -121 -50
-41 0 -64 6 -85 21 -23 16 -38 20 -67 14 -20 -3 -61 -9 -89 -12 l-53 -5 0 -45
c0 -29 8 -58 21 -79 l21 -34 -70 0 c-81 0 -105 -15 -72 -45 11 -10 20 -21 20
-25 0 -8 -152 14 -169 24 -26 16 -76 12 -103 -7 -23 -17 -32 -19 -53 -9 -21
10 -28 9 -45 -8 -14 -14 -27 -18 -50 -14 -25 5 -30 11 -30 34 0 24 -5 29 -35
34 -19 4 -44 2 -55 -4 -17 -9 -20 -8 -20 10 0 11 -6 23 -14 26 -8 3 -18 19
-21 36 -9 39 15 65 73 80 33 8 49 19 67 47 48 76 112 111 204 111 46 0 66 6
104 30 49 31 53 39 37 70 -8 15 -6 20 8 24 10 4 27 14 38 24 49 44 52 45 84
31 16 -8 30 -17 30 -20 0 -4 11 -10 24 -13 15 -4 28 -17 34 -36 9 -24 17 -30
41 -30 16 0 34 6 38 14 4 8 19 16 32 18 20 3 25 -3 38 -44 14 -43 14 -48 -1
-64 -11 -10 -15 -25 -12 -38 3 -12 6 -26 6 -31 0 -18 54 -45 70 -35 8 5 17 36
21 77 4 38 14 84 22 103 41 98 60 147 63 170 l4 25 -9 -25 c-4 -14 -18 -43
-30 -65 -11 -22 -21 -47 -21 -56 0 -9 -7 -31 -16 -49 -9 -18 -19 -53 -21 -79
-7 -75 -12 -91 -31 -91 -10 0 -23 5 -30 12 -15 15 -16 78 -1 78 11 0 10 19 -8
90 -8 31 -12 35 -39 32 -16 -2 -34 -10 -40 -18 -19 -24 -54 -17 -65 14 -7 19
-28 36 -70 57 -52 26 -62 28 -81 16 -19 -12 -27 -7 -104 70 -46 46 -86 91 -89
99 -3 9 -19 16 -42 18 -21 1 -42 7 -47 12 -15 15 -46 12 -46 -4 0 -12 -65 -46
-88 -46 -4 0 -5 21 -3 46 l3 47 -43 -7 c-42 -6 -45 -4 -67 27 -12 19 -34 45
-48 58 -21 20 -28 21 -44 11 -27 -16 -55 -15 -70 3 -9 11 -27 15 -54 13 l-41
-3 0 -48 c-1 -27 -5 -51 -11 -55 -5 -4 -27 -29 -49 -57 -22 -27 -56 -68 -76
-91 -20 -23 -40 -50 -43 -62 -5 -14 -13 -18 -26 -15 -31 8 -72 -24 -64 -49 6
-19 3 -20 -37 -13 -24 4 -49 15 -55 24 -11 14 -15 13 -34 -12 -24 -31 -36 -33
-59 -13 -9 8 -28 17 -43 21 -34 9 -52 -22 -49 -82 2 -40 0 -43 -23 -43 -13 0
-37 7 -53 14 -15 8 -36 17 -45 20 -10 3 -18 14 -18 25 0 11 -6 24 -14 28 -8 4
-15 16 -17 26 -3 11 -20 24 -42 32 -21 7 -47 21 -57 30 -16 15 -21 15 -47 1
-16 -8 -35 -22 -43 -31 -11 -14 -15 -14 -36 0 -13 8 -29 15 -37 15 -16 0 -57
-41 -57 -58 0 -16 -10 -15 -51 2 -43 18 -74 52 -74 80 0 14 -7 22 -21 24 -16
2 -25 15 -35 55 -12 46 -19 54 -56 72 -32 15 -48 32 -69 73 -17 33 -41 63 -63
76 -20 13 -43 36 -51 52 -16 32 -112 134 -125 134 -11 0 -34 -32 -35 -48 0 -7
16 -29 35 -50 19 -20 45 -53 58 -72 12 -19 35 -41 50 -48 21 -10 27 -20 27
-47 0 -31 5 -36 47 -58 34 -17 55 -37 78 -74 16 -27 53 -77 82 -109 28 -32 63
-72 77 -89 22 -27 27 -29 46 -17 18 11 25 10 53 -10 40 -28 56 -49 50 -65 -3
-8 12 -20 40 -32 25 -11 50 -27 55 -37 8 -14 22 -17 71 -15 47 2 75 -4 129
-27 61 -25 72 -27 103 -17 19 7 62 15 96 18 l62 7 3 -38 c4 -45 26 -53 64 -23
15 12 41 21 58 21 29 0 33 -4 44 -46 10 -37 15 -44 31 -39 11 3 48 1 83 -6 34
-6 74 -10 87 -10 13 1 30 -4 37 -10 17 -14 51 -3 65 22 8 15 7 26 -5 43 -14
23 -14 23 25 16 22 -4 48 -15 59 -25 11 -10 39 -20 64 -22 40 -5 45 -8 50 -36
3 -17 14 -39 23 -50 17 -18 17 -20 -1 -33 -11 -7 -34 -17 -52 -20 -44 -8 -59
-26 -44 -53 6 -12 20 -21 31 -21 37 0 159 -144 159 -188 0 -11 6 -23 13 -26
25 -13 66 -42 111 -80 26 -21 52 -36 60 -33 8 3 29 -8 48 -26 28 -27 33 -38
30 -70 -4 -46 -40 -67 -80 -45 -21 11 -26 10 -38 -7 -7 -11 -18 -26 -24 -32
-6 -7 -7 -13 -3 -13 4 0 17 12 29 27 18 23 24 25 37 14 10 -8 27 -10 47 -6 30
7 31 9 45 80 8 38 -5 66 -27 59 -14 -4 -21 0 -25 16 -5 18 -11 21 -34 16 -17
-3 -29 -1 -29 4 0 6 -11 15 -25 20 -14 5 -28 16 -31 24 -3 9 -26 27 -50 41
-25 14 -44 33 -44 43 0 24 -89 150 -111 157 -11 4 -19 13 -19 21 0 9 -11 14
-30 14 -16 0 -31 5 -31 10 -1 6 -2 15 -3 21 -1 13 75 39 116 39 15 0 29 4 32
9 4 5 18 6 33 2 20 -5 28 -14 28 -30 0 -17 10 -27 38 -38 36 -15 39 -15 62 7
18 17 28 20 37 12 9 -7 23 -6 48 5 40 19 90 25 105 13 6 -4 39 -11 75 -14 76
-8 93 -16 88 -42 -2 -14 -18 -21 -64 -30 -33 -6 -66 -14 -72 -18 -29 -17 3
-120 41 -135 12 -5 37 -15 56 -22 18 -7 45 -22 60 -34 14 -11 46 -29 70 -38
39 -15 47 -15 61 -2 9 8 41 17 72 21 51 6 56 5 62 -14 4 -12 38 -42 76 -67 38
-26 72 -51 76 -56 3 -5 -1 -21 -10 -34 -9 -13 -16 -26 -16 -29 0 -3 55 -54
122 -115 119 -109 123 -112 213 -140 50 -16 105 -36 123 -45 17 -9 55 -16 84
-16 l52 0 -47 -32 c-41 -29 -46 -36 -41 -60 4 -21 0 -30 -21 -44 -21 -13 -25
-23 -20 -41 8 -32 -2 -63 -20 -63 -8 0 -23 -28 -36 -70 -24 -72 -30 -77 -73
-60 -20 7 -27 6 -35 -8 -5 -9 -19 -17 -32 -17 -20 0 -37 -48 -225 -620 -112
-341 -206 -628 -209 -637 -7 -20 -16 -23 -140 -38 -141 -18 -129 -5 -123 -130
l6 -108 -30 -6 c-17 -3 -44 -6 -60 -6 -21 0 -31 -6 -35 -20 -6 -24 -28 -26
-41 -5 -7 14 -18 14 -78 5 -193 -29 -367 -50 -372 -45 -3 2 12 132 32 287 20
156 38 294 39 308 2 20 -6 28 -41 44 l-42 20 5 60 c5 56 2 66 -28 121 -19 33
-39 60 -46 60 -6 0 -17 -11 -24 -25 -9 -18 -26 -28 -57 -36 -59 -13 -82 -24
-100 -43 -25 -27 -50 -78 -50 -100 0 -20 -4 -21 -38 -16 -35 5 -35 4 -9 -6 36
-14 57 -5 57 24 0 42 54 105 102 119 24 7 49 12 55 13 19 0 53 33 53 50 0 29
15 14 48 -48 31 -58 33 -67 27 -123 l-7 -62 43 -14 c25 -9 44 -21 43 -29 0 -8
-18 -148 -39 -311 l-39 -296 -24 19 c-26 20 -77 26 -86 10 -3 -5 -14 -7 -24
-4 -10 2 -28 -4 -41 -14 -21 -17 -22 -22 -14 -99 11 -100 6 -119 -35 -145 -28
-16 -32 -22 -22 -34 17 -20 6 -43 -22 -47 -12 -2 -24 -10 -26 -19 -4 -20 45
-69 69 -69 11 0 19 -4 19 -10 0 -5 -8 -9 -17 -7 -28 3 -29 -17 -2 -30 29 -15
49 -60 40 -88 -9 -23 -6 -89 4 -105 4 -6 2 -17 -4 -24 -9 -11 -2 -22 33 -52
30 -26 48 -50 52 -72 7 -32 6 -33 -18 -21 -37 16 -68 -3 -68 -42 0 -37 16 -69
35 -69 26 0 37 -36 25 -80 -10 -37 -13 -40 -37 -34 l-26 7 6 -55 c6 -47 4 -59
-14 -82 -18 -22 -19 -31 -10 -57 6 -17 8 -42 5 -54 -4 -18 4 -33 36 -65 31
-31 45 -39 53 -31 6 6 19 11 29 11 15 0 18 -8 18 -48 0 -44 2 -49 36 -67 44
-23 158 -23 181 1 18 17 18 17 36 -1 8 -8 48 -26 88 -40 116 -41 115 -41 133
-7 9 17 23 35 31 40 9 4 26 34 39 66 l23 57 154 -193 c84 -106 165 -209 180
-228 l28 -35 -62 -63 -62 -63 0 -67 0 -68 -68 -43 -67 -43 5 -46 c6 -45 3 -51
-52 -132 -51 -74 -68 -114 -137 -313 l-79 -228 40 -77 c45 -85 54 -116 55
-191 0 -33 -6 -60 -19 -78 -25 -37 -43 -80 -43 -103 0 -15 25 -68 46 -98 1 -2
28 2 61 8 32 6 157 17 277 25 120 9 313 22 428 30 l209 15 100 51 c107 54 102
54 236 33 29 -4 56 -1 88 11 25 10 45 20 45 22 0 2 -7 33 -16 68 -14 57 -15
95 -5 327 7 176 18 305 32 388 24 140 22 209 -11 499 -17 146 -17 165 -4 179
9 8 22 25 31 38 10 16 25 24 44 24 15 0 31 5 34 10 10 16 47 12 90 -10 54 -27
72 -25 107 12 24 26 31 29 39 17 5 -8 9 -17 9 -21 0 -18 32 -6 37 12 7 28 25
21 45 -19 22 -43 25 -46 42 -32 8 7 24 10 35 6 19 -6 19 4 23 622 l5 628 27
78 c27 76 29 78 47 61 15 -14 35 -17 87 -16 108 3 145 21 253 122 117 109 156
167 289 423 l103 199 84 71 c47 40 120 95 163 124 57 38 90 68 118 110 22 32
50 68 63 79 72 64 267 177 399 231 15 6 34 28 45 52 17 34 25 41 50 41 36 0
88 -30 110 -64 13 -19 15 -37 10 -74 -4 -34 -1 -67 10 -106 9 -32 15 -66 12
-77 -3 -10 -1 -19 4 -19 11 0 12 51 0 82 -4 13 -11 36 -15 51 l-7 28 183 -2
183 -2 31 54 c17 30 76 133 131 229 231 403 230 400 201 453 -12 23 -218 295
-347 457 -42 53 -101 128 -131 168 -48 64 -72 84 -194 163 -77 49 -150 92
-162 95 -16 4 -35 -4 -63 -27 -23 -18 -43 -30 -45 -28 -3 2 -6 49 -7 103 -2
110 1 116 63 116 53 0 85 15 91 42 14 54 65 107 134 138 37 17 77 40 89 51
l21 20 31 -25 c16 -14 33 -38 36 -52 4 -15 9 -24 12 -21 12 11 -10 53 -44 84
-25 23 -31 33 -19 33 18 0 41 35 33 49 -3 5 -1 46 5 91 9 73 8 89 -10 144 -11
33 -23 99 -27 146 -4 47 -15 104 -25 128 -33 76 -26 106 35 170 56 59 126 168
126 197 0 9 -20 56 -45 104 l-45 88 0 112 c0 64 -5 122 -11 134 -7 12 -38 50
-70 83 -68 72 -79 95 -80 172 0 90 -16 122 -75 155 -28 16 -56 38 -63 49 -7
12 -17 68 -23 127 -8 91 -14 114 -43 166 -30 54 -35 73 -44 180 -9 101 -15
129 -42 183 -40 82 -86 125 -179 166 -242 107 -235 98 -236 271 -1 157 -4 164
-49 145z m38 -147 c2 -126 4 -143 22 -163 11 -12 72 -47 135 -77 177 -84 183
-87 222 -139 50 -65 67 -118 79 -249 9 -94 15 -120 44 -176 29 -56 36 -84 44
-167 5 -55 14 -109 20 -121 7 -11 36 -36 65 -55 30 -19 57 -39 60 -45 4 -5 10
-51 15 -100 9 -102 17 -117 100 -205 l56 -58 5 -132 c3 -80 11 -140 19 -154 7
-13 11 -26 9 -28 -3 -2 -90 -31 -194 -63 -104 -33 -215 -69 -246 -80 l-57 -20
-57 177 c-31 97 -67 213 -81 257 -13 44 -42 134 -63 200 -21 66 -53 167 -71
224 -37 119 -74 168 -149 194 -91 31 -206 66 -240 72 -62 11 -350 106 -350
116 0 20 37 87 70 125 40 48 152 227 204 328 28 54 36 81 36 122 0 46 4 56 25
70 29 19 32 36 10 54 -21 17 -11 25 29 22 21 -2 40 3 51 14 16 17 16 18 -4 26
l-22 8 22 30 c19 25 24 27 34 14 10 -14 12 -14 25 1 11 13 11 23 2 49 -19 51
-16 56 31 57 23 0 51 4 62 9 11 5 24 8 28 6 5 -1 10 -65 10 -143z m-561 -833
c85 -31 281 -90 303 -90 46 -1 47 -14 8 -83 -58 -106 -134 -189 -246 -271 -56
-41 -126 -100 -156 -130 l-55 -55 21 -43 c28 -56 58 -170 50 -190 -3 -9 -40
-26 -81 -39 -42 -13 -76 -29 -76 -36 0 -7 52 -134 116 -282 64 -149 113 -274
110 -279 -3 -6 -18 -13 -33 -17 -27 -6 -169 -51 -563 -176 l-185 -59 -27 -45
c-43 -71 -96 -59 -118 28 -25 96 -63 226 -86 291 -27 79 -29 96 -11 96 18 0
53 39 62 70 4 14 13 32 20 40 14 18 57 99 118 230 25 52 66 121 91 153 25 32
55 75 68 95 20 33 60 88 131 177 13 17 52 75 87 130 76 122 99 147 153 171
115 49 186 86 191 100 3 9 6 56 6 105 0 93 10 129 35 129 8 0 38 -9 67 -20z
m468 -140 c144 -41 164 -67 233 -290 24 -80 88 -283 141 -451 53 -168 96 -310
96 -315 0 -5 -102 -41 -227 -81 -126 -39 -331 -104 -456 -143 -130 -41 -232
-69 -236 -64 -7 8 -76 162 -204 462 -25 57 -32 84 -24 87 7 3 44 16 82 29 l70
23 -2 39 c-1 33 -33 142 -57 194 -11 25 55 93 185 191 127 96 188 162 253 277
28 49 46 71 56 68 8 -2 49 -14 90 -26z m1029 -964 l24 -47 -24 -52 c-13 -29
-49 -79 -80 -112 -87 -93 -94 -119 -60 -210 10 -27 21 -89 25 -137 4 -47 16
-112 27 -143 18 -51 19 -65 9 -137 -6 -44 -9 -87 -6 -95 4 -9 -7 -21 -28 -34
-19 -11 -37 -27 -40 -35 -3 -8 -40 -31 -82 -50 -82 -37 -102 -55 -134 -122
-23 -48 -49 -62 -115 -62 -24 0 -46 -4 -50 -10 -3 -5 -37 -19 -75 -31 l-69
-23 -65 28 c-50 21 -75 27 -101 22 l-34 -7 21 48 c11 26 47 91 78 143 55 90
130 231 130 242 0 16 -229 31 -495 33 -222 1 -328 6 -410 18 -60 9 -164 25
-229 34 l-120 18 -18 74 c-11 41 -17 80 -14 87 3 7 38 23 78 35 40 11 170 52
288 90 118 38 420 133 670 213 250 79 545 173 655 209 110 36 204 64 210 63 5
-2 21 -24 34 -50z m-6243 -95 c27 -27 57 -65 68 -84 10 -20 31 -41 46 -47 19
-8 39 -32 59 -70 23 -43 43 -65 73 -82 36 -20 44 -31 58 -78 12 -41 21 -54 33
-52 11 2 17 -4 17 -16 0 -24 56 -76 102 -96 l38 -15 16 34 c19 41 40 50 70 30
30 -19 25 -20 68 14 l37 30 59 -32 c33 -18 60 -37 60 -43 0 -6 7 -17 15 -24 8
-7 15 -20 15 -29 0 -31 148 -79 164 -53 3 4 1 24 -3 45 -12 52 8 80 49 65 17
-5 30 -14 30 -18 0 -21 33 -18 56 6 21 20 29 23 41 13 8 -7 22 -14 31 -15 10
-2 30 -6 46 -10 28 -7 29 -6 24 25 -5 36 14 53 53 48 15 -1 27 6 35 22 7 13
51 70 98 127 85 100 86 103 80 143 l-7 41 40 0 c25 0 46 -6 54 -16 13 -15 44
-15 81 0 12 6 27 -7 58 -49 42 -57 43 -57 83 -51 l40 7 -6 -46 c-8 -52 -5 -53
66 -29 28 10 47 22 47 31 0 10 5 13 18 8 9 -4 31 -11 49 -16 33 -10 213 -176
213 -197 0 -6 -15 -19 -32 -28 -44 -22 -43 -20 -25 -48 18 -27 15 -32 -43 -61
-20 -11 -53 -17 -79 -16 -25 1 -65 -6 -90 -15 -48 -18 -127 -85 -137 -116 -3
-10 -23 -23 -47 -30 -23 -7 -54 -21 -69 -31 -33 -24 -99 -19 -131 11 -22 19
-117 40 -117 26 0 -4 10 -18 22 -31 l21 -23 -23 -20 c-14 -12 -27 -17 -34 -11
-10 8 -118 23 -196 26 -30 2 -35 6 -43 36 -17 66 -44 75 -105 34 -50 -34 -60
-32 -64 13 l-3 37 -60 -2 c-33 -1 -79 -7 -103 -14 -38 -11 -48 -9 -103 16 -46
20 -75 27 -125 26 -47 0 -66 4 -70 14 -3 8 -25 21 -49 31 -30 11 -42 21 -38
31 7 18 -39 67 -78 83 -23 10 -32 10 -44 0 -9 -7 -17 -11 -18 -9 -16 25 -90
112 -119 141 -20 20 -46 55 -57 77 -23 43 -62 78 -98 87 -19 5 -24 13 -23 33
3 43 1 49 -20 56 -11 4 -43 34 -70 68 -28 34 -57 69 -66 79 -12 13 -13 21 -4
37 6 12 12 21 14 21 2 0 25 -22 52 -49z m3705 -251 c11 -30 38 -120 60 -200
22 -80 47 -164 54 -187 l14 -43 -37 -9 c-20 -6 -64 -17 -97 -24 -109 -26 -376
-118 -381 -132 -3 -7 11 -66 31 -132 20 -65 46 -149 57 -188 12 -38 23 -64 25
-58 3 7 -5 40 -16 73 -12 33 -21 68 -21 78 0 9 -16 62 -35 116 -27 77 -32 102
-23 108 38 24 446 148 487 148 17 0 33 -59 38 -135 5 -80 -61 -761 -76 -777
-4 -4 -43 -14 -87 -22 -95 -16 -120 -28 -238 -112 -86 -62 -91 -64 -150 -64
-46 0 -94 11 -188 43 l-127 42 -116 104 c-63 57 -115 107 -115 111 0 3 27 36
60 72 44 48 81 77 138 106 128 66 170 76 319 76 72 1 135 4 139 9 14 14 -246
8 -307 -8 -96 -25 -221 -91 -274 -145 l-48 -49 -44 36 c-24 20 -58 43 -76 53
-22 12 -33 26 -35 45 -4 27 -4 27 -60 20 -31 -4 -71 -13 -88 -21 -28 -13 -36
-13 -66 -1 -19 8 -54 28 -76 45 -23 16 -58 33 -77 36 -28 6 -39 15 -56 47 -11
22 -17 48 -14 58 6 19 44 31 94 31 33 0 51 17 51 46 0 13 5 26 10 29 15 9 12
22 -10 43 -21 19 -21 19 24 25 25 4 52 4 60 1 16 -6 96 32 96 46 0 5 -13 7
-28 4 -39 -8 -67 33 -58 82 6 30 10 33 34 28 15 -3 47 2 71 10 43 16 45 15 87
-9 74 -43 147 -29 237 47 29 24 80 52 125 69 42 16 84 36 93 46 10 10 24 45
31 78 12 51 19 64 56 92 32 24 51 32 80 30 58 -2 94 18 116 64 13 28 35 51 72
75 30 19 64 50 77 70 l22 34 73 -2 74 -3 19 -55z m602 -305 c11 -44 21 -81 22
-83 1 -1 64 -11 141 -22 76 -11 171 -25 209 -31 117 -18 416 -29 532 -20 135
11 353 -13 353 -39 0 -8 -30 -67 -67 -130 -37 -63 -87 -155 -112 -204 -46 -88
-46 -89 -106 -111 -49 -18 -61 -26 -63 -47 -3 -20 -13 -28 -65 -45 -58 -18
-62 -21 -61 -50 2 -27 -2 -31 -47 -46 -31 -9 -51 -12 -55 -5 -3 5 -3 42 1 82
l6 72 -141 13 c-78 7 -144 10 -148 6 -4 -3 5 -40 20 -81 l27 -75 -32 -15 c-18
-8 -99 -38 -182 -67 -82 -29 -149 -58 -148 -64 2 -7 5 -29 9 -51 l6 -39 -46
-12 c-35 -9 -46 -16 -44 -29 2 -12 -8 -19 -36 -26 -39 -10 -39 -10 -90 46
l-51 57 -125 -18 c-69 -10 -145 -21 -169 -24 l-43 -5 6 41 c3 23 22 190 41
370 31 284 34 339 25 404 -5 41 -14 83 -20 93 -13 25 -13 63 1 55 21 -14 60 7
84 45 14 21 34 44 45 50 35 19 264 89 285 87 15 -2 23 -18 38 -82z m1187 -636
l72 -30 64 22 c35 12 66 20 69 17 3 -3 10 -196 16 -429 l10 -424 -100 -230
-100 -230 -44 -5 c-24 -3 -56 -13 -70 -23 -15 -9 -50 -26 -80 -37 -29 -11 -68
-36 -87 -55 -30 -31 -40 -35 -83 -35 l-49 0 -137 -135 c-76 -74 -142 -135
-148 -135 -15 0 -203 198 -203 213 0 7 14 26 30 42 17 16 30 33 30 38 0 6 -38
50 -85 98 -47 49 -85 93 -85 98 0 5 89 95 199 200 l198 192 95 177 c53 97 153
290 223 428 116 230 129 252 158 262 18 5 33 10 33 11 1 1 34 -13 74 -30z
m-170 -16 c0 -8 -301 -599 -369 -723 -43 -79 -69 -112 -154 -194 l-102 -98
-82 88 -82 88 -41 -11 c-39 -10 -41 -9 -55 16 -7 14 -41 53 -75 86 -61 60 -65
71 -45 117 5 14 0 20 -21 28 -16 6 -39 15 -51 22 l-22 11 20 28 c11 15 18 33
17 40 -2 8 13 17 35 23 25 7 37 15 37 28 0 13 13 21 46 29 50 13 49 11 29 90
-5 23 2 26 162 82 92 32 175 62 182 67 13 7 12 20 -9 84 -13 42 -21 78 -19 81
3 2 56 -2 119 -10 63 -7 118 -11 124 -8 5 4 7 -20 4 -61 -9 -109 1 -121 73
-92 19 7 42 16 51 19 14 5 16 11 9 31 -9 23 -7 25 57 48 58 20 67 26 67 47 0
19 9 27 35 37 40 14 60 17 60 7z m650 -204 c141 -88 157 -102 252 -226 35 -45
142 -184 238 -308 96 -124 181 -235 189 -245 31 -45 18 -81 -110 -302 -67
-117 -148 -260 -180 -318 -56 -104 -58 -105 -93 -104 -20 0 -102 1 -182 2
-112 2 -145 5 -141 15 20 55 20 57 -31 108 -39 39 -56 49 -83 50 -45 0 -84 47
-81 95 4 53 -74 124 -135 124 -27 0 -33 -4 -33 -21 l0 -20 -30 21 c-22 16 -28
25 -21 34 5 6 53 113 106 236 l97 225 -1 195 c-1 107 -4 254 -7 325 l-6 130
43 32 c24 17 52 32 61 32 10 1 77 -36 148 -80z m-1804 -216 c16 -21 39 -50 52
-65 l24 -27 -21 -27 c-25 -32 -21 -41 35 -66 50 -21 48 -19 33 -52 -11 -23 -7
-31 65 -106 42 -45 76 -89 76 -97 0 -12 7 -14 38 -8 20 4 42 8 47 9 6 0 45
-36 89 -81 l79 -83 -84 -82 c-46 -46 -230 -222 -409 -393 -179 -170 -369 -352
-423 -404 -98 -96 -116 -125 -118 -196 0 -30 -1 -30 -12 -7 -8 18 -5 81 16
275 15 139 32 322 37 407 6 85 19 227 30 315 11 88 31 264 45 390 36 324 26
292 94 301 31 4 92 12 136 19 133 21 140 20 171 -22z m-386 -25 c0 -15 -51
-466 -80 -708 -10 -91 -24 -244 -30 -340 -6 -96 -21 -258 -33 -360 l-22 -185
-47 -3 c-37 -2 -95 13 -265 68 -120 40 -293 97 -385 127 -93 30 -168 55 -168
56 0 1 56 171 124 377 101 307 126 376 142 378 10 2 25 11 31 20 10 12 17 13
38 4 38 -18 52 -6 75 63 12 35 30 69 41 77 15 9 21 25 22 53 1 29 7 45 25 59
17 13 22 25 18 42 -5 20 12 35 152 133 167 116 190 128 262 141 70 12 100 11
100 -2z m797 -880 c46 -46 83 -87 83 -93 0 -6 -13 -24 -30 -40 -16 -16 -30
-35 -30 -43 0 -7 45 -60 100 -117 55 -58 100 -108 100 -113 0 -5 -64 -67 -142
-138 -203 -183 -637 -581 -673 -615 l-29 -29 45 -47 c103 -108 289 -372 289
-412 0 -7 -39 -14 -75 -13 -11 0 -48 16 -82 36 -66 39 -94 44 -112 22 -11 -13
-45 -11 -66 4 -5 4 -27 10 -47 14 -20 4 -49 13 -64 21 -20 10 -33 11 -47 3
-15 -8 -26 -5 -49 12 -26 19 -33 20 -66 9 -49 -16 -102 -57 -102 -80 0 -9 -9
-21 -20 -24 -23 -7 -25 -16 -9 -32 13 -13 4 -33 -17 -33 -17 0 -17 -7 1 153 9
73 22 213 30 312 19 234 33 312 61 355 14 21 29 68 38 120 l14 85 179 170 c98
94 277 265 398 382 121 117 224 212 230 213 5 0 47 -37 92 -82z m965 -20 c38
-32 58 -30 58 4 0 31 46 15 97 -34 36 -35 41 -45 36 -73 -4 -26 0 -37 16 -51
24 -21 28 -66 6 -84 -8 -7 -15 -18 -15 -24 0 -7 -37 -27 -82 -45 -159 -65
-337 -186 -397 -270 -46 -65 -80 -99 -136 -131 -45 -27 -172 -129 -219 -176
-17 -17 -48 -64 -69 -105 -115 -227 -178 -342 -220 -400 -55 -77 -213 -219
-264 -237 -20 -6 -37 -11 -38 -10 -1 2 -16 32 -34 68 -28 59 -182 269 -267
364 -27 32 -32 42 -22 51 7 7 123 113 258 236 134 123 313 286 397 362 85 76
224 206 310 288 152 145 158 149 199 149 37 0 51 7 94 45 28 25 63 48 78 51
15 4 52 20 82 35 62 32 76 31 132 -13z m-2574 -534 c114 -36 278 -90 365 -120
88 -30 171 -54 187 -54 67 0 89 -11 100 -49 15 -53 12 -79 -10 -109 -21 -28
-33 -90 -50 -252 -9 -85 -50 -515 -53 -565 -2 -16 4 -20 27 -18 39 3 51 16 37
41 -8 16 -7 21 4 26 8 3 15 14 15 24 0 20 38 51 88 72 30 12 37 11 64 -4 20
-12 40 -16 60 -12 17 3 36 2 42 -3 16 -12 141 -51 165 -51 11 0 24 7 28 14 7
13 14 12 50 -4 l42 -19 -23 -68 c-33 -96 -38 -209 -37 -801 l1 -513 -26 -9
c-28 -11 -25 -13 -77 50 -14 17 -21 19 -32 10 -8 -7 -13 -16 -10 -20 3 -5 1
-11 -4 -14 -5 -3 -16 6 -26 20 -13 20 -19 23 -31 13 -8 -6 -14 -17 -14 -25 0
-34 -73 -41 -110 -10 -26 22 -47 25 -75 10 -15 -8 -38 -14 -50 -14 -15 0 -34
-14 -53 -37 l-29 -37 -12 54 c-21 96 -29 102 -378 277 -566 283 -570 286 -593
385 -7 29 -32 136 -57 238 -24 102 -55 259 -69 350 -14 91 -40 260 -59 376
-21 124 -35 247 -35 297 0 99 -14 89 148 108 l102 12 81 249 c45 136 86 248
91 248 5 0 103 -30 216 -66z m-626 -795 c10 -57 34 -210 53 -341 20 -130 52
-303 71 -385 69 -294 67 -282 54 -298 -7 -8 -28 -15 -47 -15 -29 0 -36 -5 -46
-29 -6 -16 -19 -32 -29 -34 -29 -8 -24 -72 8 -104 14 -14 24 -26 22 -27 -8 -7
-108 -36 -121 -36 -8 0 -20 7 -27 15 -15 18 -50 20 -50 2 0 -7 5 -18 12 -25
18 -18 -3 -14 -23 4 -27 24 -49 11 -49 -29 0 -45 -25 -104 -58 -137 -15 -14
-32 -34 -38 -45 -10 -18 -12 -18 -46 -2 -20 9 -43 17 -51 17 -9 0 -19 5 -22
10 -3 6 -16 10 -29 10 -13 0 -31 9 -41 20 -22 24 -38 25 -56 4 -8 -9 -21 -13
-35 -10 -13 4 -41 2 -63 -3 -60 -13 -94 13 -101 76 -5 47 -6 48 -37 47 -41 -2
-108 55 -98 85 3 10 1 31 -5 46 -8 22 -6 33 11 62 17 26 20 43 15 74 -5 34 -4
39 14 39 22 0 35 21 45 71 6 34 4 39 -29 64 -29 22 -36 34 -36 61 0 24 5 34
21 39 12 4 26 2 32 -4 6 -6 19 -11 30 -11 14 0 17 5 11 23 -16 52 -24 65 -57
94 -22 19 -35 39 -34 54 0 13 -1 44 -3 69 -2 25 0 54 3 65 9 25 -26 85 -50 86
-12 1 -9 3 7 8 34 9 32 33 -4 42 -45 12 -88 59 -53 59 23 0 58 45 46 57 -14
14 -4 32 26 43 28 11 34 46 23 141 -7 62 -6 74 9 91 11 13 25 17 39 14 13 -4
26 -2 29 4 10 17 51 11 76 -11 28 -24 31 -24 302 11 157 21 169 21 180 5 15
-20 67 -11 67 11 0 7 10 16 23 19 37 8 72 12 82 10 5 -1 17 -48 27 -106z m246
-1125 c16 -16 210 -120 436 -234 224 -112 418 -214 431 -226 49 -45 59 -88 89
-364 28 -253 29 -324 7 -455 -15 -82 -25 -207 -32 -395 -10 -239 -9 -283 4
-333 l15 -58 -26 -10 c-48 -19 -86 -21 -142 -6 -67 17 -93 11 -204 -48 l-81
-44 -225 -16 c-519 -36 -648 -46 -695 -54 -54 -9 -65 -7 -65 13 0 8 -7 19 -15
26 -27 23 -14 90 28 137 16 18 20 36 19 88 -1 78 -14 126 -47 180 -52 84 -55
63 34 315 71 204 88 243 137 312 54 76 56 82 50 126 l-6 47 67 41 67 42 0 72
1 72 65 58 65 58 -24 34 c-14 18 -84 107 -156 198 -195 246 -195 247 -195 264
0 14 5 13 30 -6 23 -17 33 -19 42 -10 9 9 9 15 0 24 -23 23 -12 28 17 7 l29
-21 66 22 c37 13 69 27 73 33 3 5 -6 19 -20 29 -34 25 -38 83 -7 93 11 3 20
14 20 24 0 26 20 40 50 34 17 -3 31 0 36 8 6 10 11 5 20 -18 7 -17 26 -43 42
-59z"/>
<path d="M5733 8520 c-18 -7 -23 -17 -23 -43 0 -19 7 -40 15 -47 21 -18 55 -3
55 25 0 23 -24 40 -41 29 -5 -3 -9 2 -9 10 0 16 11 20 39 17 7 -2 10 2 6 8 -7
13 -12 13 -42 1z m30 -76 c-3 -8 -9 -14 -13 -14 -14 0 -22 20 -16 37 5 12 9
13 21 3 7 -6 11 -18 8 -26z"/>
<path d="M4561 7626 c-27 -42 -26 -46 3 -46 13 0 27 -6 29 -12 10 -25 23 10
19 52 -5 50 -23 52 -51 6z m26 -33 c-3 -3 -13 -3 -21 -1 -15 3 -15 6 1 28 l18
25 3 -23 c2 -13 1 -26 -1 -29z"/>
<path d="M5310 7765 c0 -20 5 -25 26 -25 33 0 29 -31 -6 -42 -24 -7 -24 -7 4
-5 39 3 58 33 32 52 -10 8 -23 12 -27 9 -5 -3 -9 2 -9 10 0 8 10 17 23 19 16
3 13 5 -10 6 -29 1 -33 -2 -33 -24z"/>
<path d="M5690 6940 c0 -5 11 -10 25 -10 30 0 29 2 9 -45 -8 -20 -13 -40 -10
-43 3 -3 7 -3 9 -1 6 10 47 100 47 104 0 3 -18 5 -40 5 -22 0 -40 -4 -40 -10z"/>
<path d="M1623 6913 c12 -3 17 -15 17 -43 0 -28 -5 -40 -17 -43 -10 -3 0 -5
22 -5 22 0 34 2 28 5 -8 3 -13 23 -13 49 0 42 -1 44 -27 43 -17 -1 -21 -3 -10
-6z"/>
<path d="M3288 6563 c26 -5 30 -33 5 -33 -17 -1 -17 -1 0 -11 26 -15 21 -37
-10 -42 -21 -4 -19 -4 7 -3 35 1 35 2 37 49 l2 47 -32 -1 c-23 -1 -26 -3 -9
-6z"/>
<path d="M3634 6106 c-10 -26 4 -46 32 -46 22 0 24 -2 14 -14 -6 -8 -21 -17
-33 -19 -19 -4 -18 -4 4 -6 35 -1 51 20 47 61 -2 28 -7 34 -31 36 -18 2 -29
-2 -33 -12z m46 -16 c0 -11 -7 -20 -15 -20 -8 0 -15 9 -15 20 0 11 7 20 15 20
8 0 15 -9 15 -20z"/>
<path d="M4735 6390 c-3 -6 -4 -19 0 -29 3 -11 1 -22 -4 -25 -11 -7 -3 -36 10
-36 4 0 6 7 3 15 -4 9 1 18 10 21 23 9 32 -3 19 -25 -10 -16 -9 -18 8 -14 19
5 27 43 9 43 -6 0 -5 8 2 20 11 17 10 22 -2 30 -20 13 -47 13 -55 0z m40 -20
c0 -7 -6 -15 -12 -17 -8 -3 -13 4 -13 17 0 13 5 20 13 18 6 -3 12 -11 12 -18z"/>
<path d="M5448 5373 c6 -2 12 -22 12 -43 0 -21 -6 -41 -12 -43 -7 -3 3 -5 22
-5 19 0 29 2 23 5 -8 3 -13 23 -13 49 0 39 -2 44 -22 43 -13 0 -17 -3 -10 -6z"/>
<path d="M5558 5373 c24 -5 31 -33 7 -33 -8 0 -15 -4 -15 -10 0 -5 7 -10 15
-10 27 0 16 -29 -12 -33 -23 -3 -22 -4 8 -6 35 -1 57 17 41 34 -4 4 -7 19 -7
33 0 23 -5 27 -30 29 -20 1 -23 0 -7 -4z"/>
<path d="M4965 5750 c-3 -5 -1 -10 4 -10 6 0 11 -16 11 -35 0 -19 -4 -35 -10
-35 -5 0 -10 -4 -10 -10 0 -5 16 -10 35 -10 19 0 35 5 35 10 0 6 -7 10 -15 10
-11 0 -15 12 -15 45 0 33 -4 45 -14 45 -8 0 -18 -4 -21 -10z"/>
<path d="M5064 5748 c-5 -7 -2 -9 9 -5 8 3 21 0 27 -8 9 -11 6 -19 -14 -36
-37 -32 -33 -49 9 -49 19 0 35 5 35 10 0 6 -12 10 -27 10 l-28 0 28 25 c30 29
32 36 15 53 -15 15 -45 15 -54 0z"/>
<path d="M6303 5243 c12 -3 17 -15 17 -43 0 -28 -5 -40 -17 -43 -10 -3 0 -5
22 -5 22 0 34 2 28 5 -8 3 -13 23 -13 49 0 42 -1 44 -27 43 -17 -1 -21 -3 -10
-6z"/>
<path d="M6407 5221 c-22 -38 -22 -51 2 -51 11 0 21 -6 23 -12 3 -9 9 -8 21 4
11 10 13 19 7 23 -5 3 -10 19 -10 36 0 37 -21 38 -43 0z m23 -16 c0 -16 -6
-25 -15 -25 -18 0 -18 5 -5 31 14 26 20 24 20 -6z"/>
<path d="M4268 5123 c6 -2 12 -22 12 -43 0 -21 -6 -41 -12 -43 -7 -3 3 -5 22
-5 19 0 29 2 23 5 -8 3 -13 23 -13 49 0 39 -2 44 -22 43 -13 0 -17 -3 -10 -6z"/>
<path d="M4368 5123 c6 -2 12 -22 12 -43 0 -21 -6 -41 -12 -43 -7 -3 5 -6 27
-6 32 0 36 2 23 10 -12 7 -18 22 -18 49 0 35 -3 40 -22 39 -13 0 -17 -3 -10
-6z"/>
<path d="M3560 4920 c-13 -8 -12 -10 3 -10 13 0 17 -8 17 -35 0 -24 -5 -35
-15 -35 -8 0 -15 -4 -15 -10 0 -5 16 -10 35 -10 19 0 35 5 35 10 0 6 -4 10
-10 10 -5 0 -10 20 -10 45 0 46 -10 55 -40 35z"/>
<path d="M3667 4918 c-21 -11 -23 -71 -2 -88 34 -28 79 26 56 69 -13 24 -33
31 -54 19z m43 -42 c0 -28 -15 -50 -29 -42 -12 8 -15 68 -4 79 10 11 33 -14
33 -37z"/>
<path d="M4310 4100 c-13 -8 -12 -10 3 -10 13 0 17 -8 17 -35 0 -24 -5 -35
-15 -35 -8 0 -15 -4 -15 -10 0 -5 16 -10 35 -10 19 0 35 5 35 10 0 6 -4 10
-10 10 -5 0 -10 20 -10 45 0 46 -10 55 -40 35z"/>
<path d="M4422 4094 c-28 -20 -30 -69 -3 -84 28 -15 39 -13 51 11 14 25 -5 53
-32 46 -11 -3 -18 0 -18 8 0 16 28 28 42 18 7 -3 8 -1 4 5 -9 16 -17 15 -44
-4z m35 -50 c8 -21 -13 -42 -28 -27 -13 13 -5 43 11 43 6 0 13 -7 17 -16z"/>
<path d="M5040 4140 c-13 -8 -12 -10 3 -10 13 0 17 -8 17 -35 0 -24 -5 -35
-15 -35 -8 0 -15 -4 -15 -10 0 -5 16 -10 35 -10 19 0 35 5 35 10 0 6 -4 10
-10 10 -5 0 -10 20 -10 45 0 46 -10 55 -40 35z"/>
<path d="M5130 4122 c0 -23 4 -28 23 -28 16 1 22 -5 22 -19 0 -15 -6 -19 -25
-17 -19 2 -22 0 -13 -9 10 -10 18 -10 38 -1 33 15 31 55 -2 60 -31 5 -29 22 2
22 14 0 25 5 25 10 0 6 -16 10 -35 10 -32 0 -35 -3 -35 -28z"/>
<path d="M3438 3093 c6 -2 12 -22 12 -43 0 -21 -6 -41 -12 -43 -7 -3 5 -6 27
-6 32 0 36 2 23 10 -12 7 -18 22 -18 49 0 35 -3 40 -22 39 -13 0 -17 -3 -10
-6z"/>
<path d="M3552 3093 l27 -4 -19 -45 c-11 -24 -15 -44 -10 -44 7 0 50 82 50 96
0 2 -17 3 -37 3 -30 -2 -32 -3 -11 -6z"/>
<path d="M2180 2889 c-13 -9 -12 -10 3 -5 14 4 17 -1 17 -33 0 -22 -6 -42 -12
-44 -7 -3 3 -5 22 -5 19 0 29 2 23 5 -8 3 -13 23 -13 49 0 45 -11 54 -40 33z"/>
<path d="M2282 2888 c-9 -9 -9 -15 1 -26 9 -12 9 -16 0 -19 -20 -7 -15 -31 7
-43 14 -8 26 -8 40 0 23 12 25 21 8 38 -8 8 -8 15 0 25 14 16 -2 37 -28 37 -9
0 -21 -5 -28 -12z m44 -9 c10 -17 -13 -36 -27 -22 -12 12 -4 33 11 33 5 0 12
-5 16 -11z m4 -53 c0 -15 -24 -28 -34 -19 -13 14 -5 33 14 33 11 0 20 -6 20
-14z"/>
<path d="M3050 1201 c0 -5 8 -7 19 -4 31 8 35 -17 7 -46 -34 -36 -33 -41 12
-40 23 1 28 3 15 6 -28 5 -29 14 -3 36 24 20 26 43 4 51 -23 9 -54 7 -54 -3z"/>
<path d="M3150 1202 c0 -6 9 -8 20 -5 33 9 38 -26 7 -53 -15 -13 -27 -26 -27
-29 0 -3 17 -4 38 -4 25 1 29 3 14 6 l-24 5 22 23 c30 32 23 59 -18 63 -17 2
-32 -1 -32 -6z"/>
<path d="M3534 9093 c16 -3 39 -10 50 -17 12 -7 37 -12 56 -10 33 2 70 -18 70
-38 0 -4 22 -30 49 -57 42 -41 63 -53 142 -79 52 -17 110 -35 129 -40 116 -32
340 -108 393 -133 83 -39 102 -38 117 5 10 33 13 34 43 25 17 -5 33 -9 33 -9
1 0 5 11 8 25 4 14 13 25 21 25 12 0 35 36 35 55 0 2 -18 10 -40 16 -22 7 -37
16 -33 20 4 4 64 31 133 59 115 48 220 99 177 86 -32 -10 -332 -139 -340 -146
-5 -5 14 -15 41 -24 41 -14 49 -20 45 -36 -3 -11 -13 -20 -23 -20 -10 0 -20
-10 -23 -21 -5 -19 -11 -21 -42 -15 -34 7 -36 5 -42 -24 -3 -18 -12 -34 -19
-37 -7 -2 -41 8 -76 22 -34 15 -189 67 -343 116 -268 86 -282 91 -316 129 -20
22 -42 40 -49 40 -7 0 -9 8 -5 20 4 14 2 20 -8 20 -8 0 -20 6 -26 14 -7 9 -31
14 -59 14 -25 0 -48 5 -50 11 -2 6 -20 10 -40 10 -33 -2 -34 -2 -8 -6z"/>
<path d="M3493 8891 l2 -205 -24 -6 c-13 -3 -28 -13 -33 -23 -4 -9 -12 -25
-16 -34 -5 -9 -17 -17 -28 -18 -10 -1 -30 -5 -43 -9 -22 -8 -24 -6 -18 21 3
16 7 33 8 39 8 41 -16 59 -41 29 -19 -22 -30 -18 -30 11 0 17 -6 28 -19 31
-11 3 -26 23 -36 49 -23 60 -42 69 -79 37 -21 -18 -26 -27 -17 -36 17 -17 13
-56 -10 -80 l-20 -22 20 -17 c12 -9 21 -20 21 -24 0 -4 8 -16 17 -26 17 -19
16 -19 -11 -12 -24 6 -27 4 -24 -12 2 -11 13 -23 26 -29 12 -5 22 -16 22 -23
0 -7 20 -33 45 -58 25 -24 45 -48 45 -52 0 -13 72 -81 100 -95 33 -16 41 -66
11 -74 -46 -12 -33 -45 30 -76 42 -21 44 -25 47 -69 2 -35 -5 -66 -28 -120
-27 -66 -35 -76 -80 -100 -50 -28 -50 -28 -50 -78 0 -42 3 -50 19 -50 25 0 39
-20 32 -45 -9 -30 -52 -84 -72 -90 -12 -4 -19 -21 -24 -58 -4 -32 -20 -74 -41
-108 -19 -32 -34 -70 -34 -87 0 -22 -6 -32 -21 -37 -13 -4 -18 -12 -15 -22 4
-8 -6 -31 -22 -51 -37 -47 -52 -76 -52 -99 0 -10 -9 -29 -20 -43 -11 -14 -20
-39 -20 -56 0 -17 -9 -43 -21 -58 -11 -14 -16 -26 -10 -26 17 0 41 43 41 73 0
15 9 45 20 65 10 20 22 49 25 65 3 15 21 45 41 67 19 21 34 47 32 57 -2 12 2
17 15 15 14 -2 17 5 17 38 0 30 10 56 35 96 19 30 35 63 35 73 0 44 13 79 31
84 10 3 23 16 28 30 5 14 15 28 21 32 37 23 29 95 -10 95 -17 0 -20 7 -20 40
0 38 3 43 49 71 69 43 105 116 105 213 1 73 2 72 -61 98 -40 16 -51 38 -23 45
21 6 34 38 28 69 -1 9 -19 26 -38 37 -42 23 -90 66 -90 82 0 9 -10 21 -70 79
-11 11 -20 27 -20 37 0 10 -11 19 -25 23 -36 9 -31 27 5 20 17 -4 30 -3 30 1
0 3 -16 27 -36 51 -34 42 -36 46 -20 62 19 21 22 82 4 82 -6 0 -1 10 11 22 30
28 51 16 69 -39 8 -25 21 -43 33 -46 13 -3 19 -14 19 -31 0 -30 11 -32 44 -11
20 13 24 14 29 2 3 -8 0 -23 -7 -33 -9 -13 -11 -27 -5 -42 8 -20 13 -22 51
-16 53 8 68 19 68 50 0 19 7 26 31 31 17 3 33 11 35 17 2 6 0 101 -5 211 l-9
200 1 -204z"/>
<path d="M3723 7943 c34 -5 34 -22 2 -53 -34 -32 -31 -40 13 -39 23 1 28 3 15
6 -28 5 -29 11 -2 39 29 31 19 54 -23 53 -30 -2 -31 -2 -5 -6z"/>
<path d="M6362 6311 c-7 -21 -12 -65 -12 -97 0 -74 40 -165 95 -213 42 -37 21
-35 217 -15 l67 7 114 -109 c63 -60 133 -125 157 -144 41 -34 43 -38 76 -175
50 -211 67 -316 54 -349 -5 -15 -10 -35 -9 -44 1 -9 7 3 15 28 19 60 10 120
-63 420 -22 92 -37 116 -96 155 -29 19 -87 73 -130 119 -100 110 -110 115
-212 100 -137 -21 -153 -19 -193 23 -71 76 -102 203 -71 292 6 18 9 34 7 37
-3 2 -10 -13 -16 -35z"/>
<path d="M2100 5773 c-24 -10 -56 -45 -44 -50 27 -10 49 -33 38 -40 -6 -5 -13
-27 -16 -49 -3 -23 -18 -69 -33 -102 -26 -58 -26 -61 -10 -92 9 -18 13 -39 9
-48 -4 -10 -6 -20 -6 -24 1 -5 -19 -8 -45 -8 l-48 0 -28 -58 c-59 -120 -64
-127 -93 -132 -24 -4 -30 -11 -32 -38 -2 -18 -9 -35 -16 -38 -23 -9 -64 14
-68 38 -4 31 -46 36 -75 8 -12 -11 -30 -20 -40 -20 -38 0 -62 -13 -65 -34 -2
-14 -14 -25 -37 -32 -18 -6 -38 -19 -43 -28 -5 -9 -20 -21 -33 -26 l-24 -9 21
-77 21 -78 -51 -47 c-56 -52 -66 -73 -29 -63 20 4 26 0 37 -26 17 -40 75 -80
117 -80 31 0 33 -2 31 -29 -1 -16 4 -36 11 -45 7 -9 11 -27 9 -41 -3 -14 -1
-25 4 -25 6 0 7 15 3 38 -3 20 -7 52 -7 70 -1 26 -6 34 -27 38 -64 14 -93 27
-109 51 -9 14 -27 36 -39 49 l-22 24 39 42 c45 46 46 53 25 122 -20 64 -19 73
6 79 11 3 23 15 26 26 3 13 13 21 27 21 13 0 36 15 53 35 20 22 40 35 56 35
13 0 32 9 42 20 25 27 58 22 65 -10 4 -19 15 -27 42 -34 48 -12 70 4 61 45 -5
25 -3 29 18 29 37 0 44 9 87 103 l41 87 40 0 c39 0 40 -1 48 -42 7 -37 13 -43
35 -46 22 -3 29 2 34 22 3 15 1 32 -6 41 -26 31 7 41 64 19 11 -4 16 -1 16 10
0 9 6 19 14 22 22 8 56 -14 56 -36 0 -11 9 -24 20 -30 22 -12 27 -40 7 -40
-16 0 -87 -72 -87 -88 0 -7 -7 -27 -16 -44 -9 -18 -23 -81 -31 -141 -10 -77
-23 -129 -44 -175 -16 -36 -36 -93 -44 -126 -51 -208 -59 -231 -83 -228 -12 2
-30 14 -38 28 -9 13 -26 24 -38 24 -12 0 -30 9 -39 21 -12 14 -24 18 -35 13
-9 -4 -30 -9 -47 -10 -16 -1 -33 -3 -37 -3 -3 -1 -28 -22 -55 -47 -48 -45
-157 -104 -194 -104 -21 0 -44 44 -35 66 3 7 24 15 48 17 l43 4 -40 1 c-66 3
-72 -6 -50 -80 10 -35 22 -68 26 -73 4 -6 -1 -22 -11 -35 -25 -32 -25 -31 6
-66 27 -29 23 -13 -3 18 -13 14 -12 20 9 49 16 22 19 33 11 36 -20 7 -16 43 5
43 9 0 31 8 47 18 17 10 42 21 56 25 14 4 48 29 76 56 29 28 63 53 77 56 14 3
37 7 52 10 16 4 34 -1 51 -15 14 -11 33 -20 43 -20 9 0 23 -11 30 -25 8 -15
23 -26 37 -26 13 -1 29 -2 36 -3 7 -1 14 17 18 44 10 75 68 279 94 330 14 27
29 81 35 122 20 133 28 173 42 211 16 42 62 95 94 107 27 11 22 56 -7 63 -12
3 -19 14 -19 29 0 40 -70 64 -88 31 -7 -12 -18 -14 -40 -10 -21 4 -36 1 -47
-9 -19 -19 -19 -28 -1 -44 19 -15 9 -40 -16 -40 -19 0 -20 5 -15 67 4 49 1 76
-10 96 -14 27 -13 34 16 98 17 38 31 83 31 99 0 17 5 30 10 30 23 0 9 41 -17
51 -26 10 -26 10 -5 24 11 8 31 19 44 24 13 6 16 10 8 10 -8 -1 -22 -3 -30 -6z"/>
<path d="M6940 5171 c0 -5 8 -7 19 -4 31 8 35 -17 7 -46 -34 -36 -33 -41 12
-40 23 1 28 3 15 6 -28 5 -29 14 -3 36 24 20 26 43 4 51 -23 9 -54 7 -54 -3z"/>
<path d="M7050 5169 c0 -5 5 -7 10 -4 6 4 10 -10 10 -34 0 -22 -5 -42 -12 -44
-7 -3 5 -5 27 -5 22 0 32 2 23 5 -14 3 -18 15 -18 49 0 37 -3 44 -20 44 -11 0
-20 -5 -20 -11z"/>
<path d="M7069 5024 c-6 -16 -16 -87 -24 -158 -12 -128 -13 -130 -46 -158 -19
-16 -45 -35 -59 -42 -30 -17 -66 -79 -105 -184 -32 -85 -30 -115 9 -213 43
-108 41 -116 -70 -236 -23 -25 -25 -78 -4 -138 24 -70 24 -68 3 -57 -10 5 -75
12 -145 16 -140 7 -135 9 -181 -59 -10 -14 -24 -24 -30 -22 -12 4 -77 102
-106 161 l-19 40 24 48 c13 26 24 56 24 67 0 21 -62 81 -84 81 -7 0 -34 20
-60 44 -26 24 -46 36 -44 27 2 -9 32 -35 68 -58 104 -67 110 -73 110 -93 0
-10 -11 -40 -24 -65 -30 -55 -26 -72 40 -173 73 -111 80 -114 118 -53 14 22
29 42 35 45 5 3 64 3 131 -1 110 -6 125 -9 151 -30 37 -31 38 -17 4 72 -30 82
-25 116 25 170 81 88 85 111 40 225 -16 41 -29 88 -30 103 0 16 17 72 38 125
27 70 47 105 74 130 20 19 54 50 76 71 l40 36 7 110 c4 61 14 128 21 149 16
45 10 63 -7 20z"/>
<path d="M2557 4966 c5 -37 2 -45 -13 -49 -11 -3 -1 -5 21 -5 22 0 32 2 23 5
-14 3 -18 15 -18 49 0 24 -4 44 -9 44 -5 0 -6 -20 -4 -44z"/>
<path d="M2634 4996 c-10 -25 0 -51 21 -55 19 -3 19 -2 3 16 -11 11 -14 23 -9
32 14 22 29 4 29 -34 0 -34 -6 -40 -38 -35 -12 1 -12 -1 -3 -11 10 -10 18 -10
38 -1 44 20 30 102 -17 102 -10 0 -21 -6 -24 -14z"/>
<path d="M1835 4959 c-4 -6 -1 -10 6 -8 47 6 51 -13 12 -53 l-27 -28 40 1 c30
1 34 2 16 8 l-24 6 21 19 c12 11 21 27 21 36 0 27 -52 42 -65 19z"/>
<path d="M1939 4946 c-23 -50 13 -98 55 -74 19 11 22 68 4 86 -20 20 -48 14
-59 -12z m51 -32 c0 -28 -4 -35 -17 -32 -22 4 -30 57 -12 69 20 12 29 1 29
-37z"/>
</g>
</svg>
