<?xml version="1.0" standalone="no"?>
<!DOCTYPE svg PUBLIC "-//W3C//DTD SVG 20010904//EN"
 "http://www.w3.org/TR/2001/REC-SVG-20010904/DTD/svg10.dtd">
<svg version="1.0" xmlns="http://www.w3.org/2000/svg"
 width="512.000000pt" height="512.000000pt" viewBox="0 0 512.000000 512.000000"
 preserveAspectRatio="xMidYMid meet">

<g transform="translate(0.000000,512.000000) scale(0.100000,-0.100000)"
fill="#000000" stroke="none">
<path d="M2354 5110 c-500 -42 -969 -226 -1374 -538 -109 -85 -347 -323 -432
-432 -436 -566 -618 -1251 -518 -1950 64 -440 239 -850 519 -1210 81 -105 311
-337 410 -415 563 -442 1238 -630 1940 -539 451 58 890 246 1261 538 97 76
320 299 396 396 292 370 476 804 540 1270 23 169 23 491 0 659 -40 295 -111
528 -241 796 -340 699 -985 1205 -1750 1374 -216 48 -535 69 -751 51z m-440
-1261 c102 -38 182 -140 193 -245 l6 -54 38 0 c53 0 138 -34 185 -74 22 -19
53 -58 69 -87 27 -49 30 -63 30 -144 0 -81 -3 -95 -30 -144 -37 -66 -92 -115
-162 -141 -43 -16 -78 -20 -178 -20 l-125 0 0 -793 c0 -748 -1 -794 -18 -826
-26 -49 -75 -73 -135 -68 -40 3 -56 11 -85 41 l-37 36 -3 805 -2 805 -125 0
c-99 0 -135 4 -175 19 -70 27 -130 78 -165 142 -27 49 -30 63 -30 144 0 81 3
95 30 144 16 29 47 68 69 87 47 40 132 74 186 74 39 0 40 1 40 34 0 105 95
230 207 271 57 21 153 18 217 -6z m1941 -1043 c33 -33 37 -76 33 -339 l-3
-229 -33 -29 c-32 -28 -34 -29 -147 -29 l-115 0 0 -85 0 -85 140 0 c207 0 230
-16 230 -165 0 -142 -27 -165 -195 -165 l-105 0 0 -162 c0 -144 -2 -167 -20
-195 -56 -92 -177 -94 -237 -4 -22 32 -23 44 -23 197 l0 164 -275 0 -275 0 0
-155 c0 -171 -8 -206 -55 -243 -31 -25 -84 -37 -120 -28 -14 4 -43 22 -63 41
l-37 33 -3 175 -3 175 -120 4 -121 3 -29 33 c-28 31 -29 37 -29 127 0 90 1 96
29 127 l29 33 156 3 156 3 0 85 0 84 -110 0 c-192 0 -190 -3 -190 325 0 258 5
289 47 314 12 7 269 10 741 11 l723 0 24 -24z"/>
<path d="M2750 2095 l0 -85 355 0 355 0 0 85 0 85 -355 0 -355 0 0 -85z"/>
</g>
</svg>
